<?xml version="1.0" standalone="no"?>
<!DOCTYPE svg PUBLIC "-//W3C//DTD SVG 20010904//EN"
 "http://www.w3.org/TR/2001/REC-SVG-20010904/DTD/svg10.dtd">
<svg version="1.0" xmlns="http://www.w3.org/2000/svg"
 width="700.000000pt" height="700.000000pt" viewBox="0 0 700.000000 700.000000"
 preserveAspectRatio="xMidYMid meet">
<metadata>
Created by potrace 1.11, written by Peter Selinger 2001-2013
</metadata>
<g transform="translate(0.000000,700.000000) scale(0.100000,-0.100000)"
fill="#000000" stroke="none">
<path d="M3451 6374 c-167 -45 -297 -186 -293 -319 1 -27 3 -115 6 -195 3 -80
1 -163 -4 -185 -5 -22 -21 -92 -35 -155 -14 -63 -28 -123 -31 -132 -3 -10 -1
-18 4 -18 5 0 22 28 37 63 15 34 40 89 55 122 15 33 38 85 50 115 37 88 39 88
97 12 70 -92 191 -206 296 -280 48 -34 91 -62 95 -62 22 0 195 -125 232 -167
111 -127 140 -274 85 -443 -22 -68 -49 -105 -99 -139 -74 -51 -184 -73 -432
-86 -118 -6 -155 -12 -239 -36 -171 -51 -312 -153 -478 -347 -45 -52 -151
-219 -195 -307 -66 -130 -104 -247 -226 -690 -138 -496 -124 -451 -138 -437
-9 9 -38 -33 -120 -170 -59 -100 -108 -186 -108 -191 0 -5 7 -6 16 -3 9 3 27
9 42 13 l26 6 -21 -34 c-72 -118 -83 -140 -69 -145 7 -3 35 7 62 22 290 162
290 162 274 120 -10 -26 -25 -109 -37 -196 -15 -110 -5 -432 14 -463 16 -26
109 209 148 373 19 81 67 195 108 254 52 77 413 456 434 456 6 0 14 -12 17
-27 4 -16 9 -39 12 -53 15 -72 21 -146 19 -250 -2 -92 -7 -126 -24 -170 -56
-139 -67 -246 -47 -495 10 -130 19 -289 21 -370 4 -196 -71 -332 -235 -426
-44 -25 -61 -41 -65 -62 -13 -57 12 -45 111 50 140 135 334 171 499 93 58 -27
83 -33 142 -33 120 -2 109 14 -42 64 -74 24 -135 46 -135 49 0 13 228 79 250
73 l24 -6 -23 31 c-29 41 -54 47 -116 27 -86 -28 -205 -52 -211 -43 -3 4 4 24
16 43 12 19 20 40 18 45 -3 10 -89 -46 -96 -62 -2 -5 -10 -8 -18 -8 -39 0 -52
121 -55 520 -1 124 2 161 14 185 9 16 24 62 34 103 14 61 15 80 5 118 -26 95
-8 156 82 288 71 103 141 231 151 275 3 16 12 35 20 41 11 9 17 5 28 -17 30
-57 40 -118 37 -223 -9 -297 -5 -465 11 -495 9 -16 37 -69 63 -117 56 -104
107 -242 146 -398 40 -160 72 -319 72 -355 0 -45 -25 -98 -64 -135 -39 -38
-61 -50 -191 -107 -153 -67 -182 -99 -78 -89 58 6 109 26 155 61 56 43 133 67
221 71 92 4 172 -13 330 -71 94 -34 105 -36 185 -31 47 3 94 8 105 10 11 2 38
5 60 5 l40 1 -28 28 c-26 26 -32 27 -135 29 -59 0 -129 4 -156 8 -51 6 -168
55 -180 74 -5 8 49 11 199 11 200 0 206 1 200 19 -8 26 31 52 68 46 39 -7 34
1 -15 26 -57 29 -103 27 -228 -11 -135 -41 -174 -44 -227 -19 -54 26 -64 49
-20 49 40 0 53 9 66 42 8 20 18 27 43 30 l33 3 -32 18 c-55 30 -100 23 -156
-25 l-49 -41 -20 24 c-72 92 -179 394 -208 589 -18 126 -19 133 -24 188 -28
307 -27 395 8 542 8 36 15 77 22 140 21 195 94 354 259 565 35 44 80 99 102
122 37 40 41 42 74 33 51 -15 51 -15 46 51 -6 67 -9 65 62 43 l24 -7 -7 62 -7
63 33 -2 c48 -3 48 -3 32 35 -24 58 -20 61 45 37 11 -4 12 4 8 39 -3 24 -8 51
-11 59 -3 8 -7 32 -10 53 l-6 37 39 0 c22 0 42 4 45 9 3 5 -3 35 -13 67 -11
32 -17 62 -15 66 3 4 18 8 35 8 32 0 33 1 19 48 -8 31 -12 88 -25 377 -12 269
-18 332 -40 455 -2 14 -7 49 -11 79 -21 183 -121 350 -286 477 -50 39 -252
164 -264 164 -11 0 -121 80 -144 104 -17 19 -23 36 -22 59 2 23 -8 46 -32 81
-61 85 -58 180 6 190 18 4 47 8 63 11 115 19 504 24 870 11 338 -13 477 -14
468 -6 -4 4 -84 22 -178 39 -226 41 -212 38 -360 61 -244 38 -279 50 -525 183
-129 69 -242 104 -342 105 -46 1 -107 -5 -137 -14z"/>
</g>
</svg>
